# xmcd
# Copyright (C) 1995-1998 Ti Kan
#
# Track frame offsets:
#       150
#       23824
#       50596
#       62917
#       86111
#       102965
#       150001
#       165057
#       176976
#
# Disc length: 2594 seconds
#
# Revision: 0
# Processed by: cddbd v1.5.2PL0 Copyright (c) Steve Scherf et al.
# Submitted via: CD-Import v1.0
#
DISCID=650a2009
DTITLE=Philip Glass - Book Of Longing
DYEAR=07
DGENRE=
TTITLE0=This Morning I Wake Up Again
TTITLE1=I Want To Love You Now
TTITLE2=Don't Have The Proof
TTITLE3=The Night Of Santiago
TTITLE4=Mother Mother
TTITLE5=You Came To Me This Morning
TTITLE6=I Am Now Able
TTITLE7=Roshi's Very Tired
TTITLE8=Merely A Prayer
EXTD=
EXTT0=
EXTT1=
EXTT2=
EXTT3=
EXTT4=
EXTT5=
EXTT6=
EXTT7=
EXTT8=
PLAYORDER=
